<?xml version="1.0" encoding="UTF-8" standalone="no"?>
<!-- Created with Inkscape (http://www.inkscape.org/) -->

<svg
   width="60.70071"
   height="46.63636"
   viewBox="0 0 16.060396 12.339203"
   version="1.1"
   id="svg1"
   xml:space="preserve"
   xmlns="http://www.w3.org/2000/svg"
   xmlns:svg="http://www.w3.org/2000/svg"><defs
     id="defs1"><style
       id="style1">
      .cls-1 {
        stroke-width: 2.79px;
      }

      .cls-1, .cls-2 {
        fill: none;
        stroke: #fff;
        stroke-linecap: round;
        stroke-linejoin: round;
      }

      .cls-2 {
        stroke-width: 2.89px;
      }
    </style><style
       id="style1-2">
      .cls-1 {
        fill: none;
        stroke: #fff;
        stroke-linecap: round;
        stroke-linejoin: round;
        stroke-width: 3.23px;
      }
    </style></defs><g
     id="layer1"
     transform="translate(-0.62903358,-2.3778507)"><g
       id="g9"
       transform="matrix(0.13043794,0,0,0.13043794,0.62947232,2.3769731)"><g
         id="g2"><path
           class="cls-1"
           d="m 21.73,50.99 c -0.37,-0.66 -0.7,-1.28 -0.99,-1.87 -1.41,-2.75 -2.33,-5.16 -2.76,-7.14 l -0.13,-0.6 21.96,-23.99 h 0.65 c 2.31,0.26 5.4,0.96 9.43,2.12 l 2.5,0.72"
           id="path1" /><path
           class="cls-1"
           d="m 90.03,52.36 3.55,3.26 1.76,1.48 6.18,5.52 0.09,0.15 c 1.38,2.23 1.09,5.14 -0.68,7.07 l -0.1,0.11 c -1.12,1.22 -2.7,1.91 -4.34,1.91 -1.47,0 -2.87,-0.54 -3.96,-1.53 l -6.12,-5.13 -0.3,0.32 3.19,2.94 c 2.39,2.19 2.54,5.92 0.35,8.31 l -0.14,0.14 c -1.09,1.19 -2.67,1.88 -4.31,1.88 -1.48,0 -2.89,-0.55 -3.98,-1.55 l -3.19,-2.94 -0.28,0.31 1.33,1.22 c 1.15,1.05 1.91,2.49 2.02,4.05 0.11,1.63 -0.44,3.19 -1.54,4.39 l -0.12,0.12 c -1.11,1.2 -2.69,1.9 -4.33,1.9 -1.48,0 -2.89,-0.55 -3.98,-1.55 l -1.46,-1.35 -0.42,0.45 c 1.41,2.22 1.17,5.17 -0.64,7.13 l -0.1,0.11 c -1.12,1.21 -2.7,1.91 -4.34,1.91 -0.83,0 -1.63,-0.17 -2.38,-0.5 C 61.66,92.43 61.53,92.37 61.4,92.3 L 60.71,91.85 C 60.53,91.73 60.36,91.6 60.2,91.46 l -0.11,-0.1"
           id="path2-3" /></g><path
         class="cls-1"
         d="m 35.18,57.3 -0.52,0.55 c -1.17,1.23 -2.44,2.56 -3.59,3.79 -0.28,0.29 -0.53,0.55 -0.78,0.81 -0.55,0.58 -1.18,1.05 -1.88,1.41 -0.96,0.5 -2.03,0.76 -3.1,0.76 -1.6,0 -3.1,-0.59 -4.23,-1.66 L 20.53,62.44 C 18,60.04 18.01,55.9 20.55,53.22 l 4.99,-5.27 c 1.37,-1.44 3.25,-2.27 5.18,-2.27 1.66,0 3.21,0.61 4.38,1.71 l 0.1,0.1 c 2.69,2.56 2.68,6.96 -0.03,9.8 z"
         id="path3-9" /><path
         class="cls-1"
         d="m 48.5,59.91 c 0,1.72 -0.65,3.36 -1.83,4.61 l -7.13,7.51 c -0.59,0.62 -1.29,1.11 -2.08,1.43 l -0.36,0.15 h -0.04 c -0.63,0.22 -1.29,0.32 -1.97,0.32 -1.57,0 -3.07,-0.59 -4.2,-1.67 l -0.87,-0.83 c -1.68,-1.59 -2.31,-4.05 -1.6,-6.27 0.26,-0.86 0.73,-1.65 1.37,-2.33 l 7.15,-7.54 c 1.26,-1.32 3.03,-2.08 4.86,-2.08 1.73,0 3.36,0.65 4.61,1.83 1.33,1.26 2.09,3.03 2.09,4.86 z"
         id="path4" /><path
         class="cls-1"
         d="m 56.74,70.56 c 0,1.72 -0.65,3.36 -1.83,4.61 l -5.8,6.12 c -0.46,0.48 -0.98,0.88 -1.55,1.18 -0.89,0.48 -1.91,0.74 -2.93,0.74 -1.59,0 -3.1,-0.6 -4.24,-1.69 l -0.77,-0.73 c -1.86,-1.77 -2.43,-4.54 -1.43,-6.89 0.07,-0.16 0.15,-0.33 0.23,-0.49 0.26,-0.49 0.58,-0.94 0.96,-1.34 l 5.8,-6.11 c 1.26,-1.33 3.03,-2.09 4.87,-2.09 1.72,0 3.36,0.65 4.61,1.83 1.33,1.26 2.09,3.04 2.09,4.87 z"
         id="path5-9" /><path
         class="cls-1"
         d="m 65.37,80.79 c 0,1.72 -0.65,3.36 -1.83,4.61 l -4.87,5.14 c -0.33,0.35 -0.71,0.66 -1.12,0.92 -0.93,0.59 -2.02,0.91 -3.14,0.91 -1.51,0 -2.94,-0.57 -4.03,-1.61 l -1.21,-1.15 c -1.87,-1.77 -2.36,-4.62 -1.19,-6.91 0.25,-0.5 0.58,-0.96 0.97,-1.37 l 1.13,-1.19 3.74,-3.95 c 1.26,-1.33 3.03,-2.09 4.87,-2.09 1.72,0 3.36,0.65 4.61,1.83 1.33,1.26 2.09,3.03 2.09,4.87 z"
         id="path6" /><path
         class="cls-1"
         d="m 108.53,41.28 -8.45,19.79 -6.55,-5.52 -1.77,-1.5 -3.49,-3.21 -20.73,-18.52 -10,1.98 v 3.28 c 0,2.42 -0.94,4.69 -2.65,6.4 -1.72,1.71 -3.99,2.65 -6.4,2.65 -2.79,0 -5.07,-2.27 -5.07,-5.07 l 0.02,-12.14 c 0,-1.39 0.7,-2.68 1.88,-3.43 l 7.85,-5.04 3.05,-1.96 3.9,-2.5 c 1.51,-0.96 3.25,-1.47 5.03,-1.47 0.24,0 0.47,0 0.71,0.02 l 6.91,0.54 8.76,0.97 15.56,14.24 3.86,3.54 7.57,6.93 z"
         id="path7" /><path
         class="cls-1"
         d="M 121.15,29.33 91.21,1.92 C 90.73,1.49 89.99,1.52 89.56,1.99 L 79.43,13.06 c -0.44,0.48 -0.41,1.22 0.07,1.65 l 1.6,1.47 4.27,3.91 14.74,13.49 6.39,5.86 0.97,0.89 1.25,1.15 0.71,0.65 c 0.48,0.44 1.22,0.41 1.65,-0.07 l 10.13,-11.07 c 0.44,-0.48 0.41,-1.22 -0.07,-1.65 z"
         id="path8" /><path
         class="cls-1"
         d="M 14.71,44.81 42.12,14.87 c 0.43,-0.48 0.4,-1.22 -0.07,-1.65 L 30.98,3.09 C 30.5,2.65 29.76,2.68 29.33,3.16 L 27.86,4.76 23.95,9.03 10.46,23.77 4.6,30.16 3.71,31.13 2.56,32.38 1.91,33.09 c -0.44,0.48 -0.41,1.22 0.07,1.65 l 11.07,10.13 c 0.48,0.44 1.22,0.41 1.65,-0.07 z"
         id="path9" /></g></g></svg>
