<?xml version="1.0" encoding="UTF-8"?>
<svg id="Layer_1" data-name="Layer 1" xmlns="http://www.w3.org/2000/svg" viewBox="0 0 2548.54 562.9" preserveAspectRatio="xMinYMid meet">
  <defs>
    <style>
      .cls-1 {
        font-family: ArialMT, Arial;
        font-size: 297.45px;
      }

      .cls-1, .cls-2 {
        isolation: isolate;
      }

      .cls-1, .cls-3 {
        fill: #fdfdfd;
      }

      .cls-4 {
        fill: #f8a31b;
      }

      .cls-5 {
        fill: #6f4f38;
      }

      .cls-6 {
        letter-spacing: .14em;
      }

      .cls-7 {
        letter-spacing: .14em;
      }

      .cls-8 {
        fill: #e11f26;
      }

      .cls-9 {
        letter-spacing: .07em;
      }
    </style>
  </defs>
  <g>
    <g class="cls-2">
      <text class="cls-1" transform="translate(986.3 285.29)"><tspan class="cls-7" x="0" y="0">A</tspan><tspan class="cls-9" x="240.04" y="0">P</tspan><tspan class="cls-6" x="458.01" y="0">ACHE</tspan></text>
    </g>
    <g fill-rule="evenodd">
      <path class="cls-3" d="M1111.58,509.66h-121.66c0-2.98.17-6.29.17-9.43v-139.21c0-4.8,0-9.27-.17-13.74h34.93c0,4.3-.17,8.77-.17,13.41v134.57l-14.57-16.72h101.47v31.29-.17Z"/>
      <path class="cls-3" d="M1237.38,512.8c-15.06,0-27.81-1.32-38.07-3.97-10.26-2.65-18.54-7.12-24.83-13.24-6.29-6.12-10.76-14.4-13.57-24.83-2.81-10.43-4.14-23.17-4.14-38.73v-7.28c0-15.4,1.32-28.3,4.14-38.73,2.81-10.43,7.28-18.7,13.57-24.83,6.29-6.12,14.57-10.59,24.83-13.24,10.26-2.65,23.01-3.97,38.07-3.97s27.97,1.32,38.24,3.97c10.26,2.65,18.54,7.12,24.66,13.24,6.12,6.12,10.59,14.4,13.41,24.83s4.14,23.17,4.14,38.73v7.28c0,15.4-1.32,28.3-4.14,38.73-2.81,10.43-7.28,18.7-13.41,24.83-6.13,6.12-14.4,10.59-24.66,13.24-10.26,2.65-23.01,3.97-38.24,3.97ZM1237.38,481.85c8.94,0,16.39-.83,22.35-2.32,5.79-1.49,10.43-4.14,13.9-7.95,3.31-3.81,5.63-9.1,6.95-16.06,1.33-6.95,1.99-15.56,1.99-26.32v-1.82c0-10.76-.66-19.37-1.99-26.32-1.32-6.95-3.64-12.25-6.95-16.06-3.31-3.81-7.95-6.46-13.9-7.95-5.79-1.49-13.24-2.15-22.35-2.15s-16.39.83-22.18,2.48-10.43,4.3-13.74,8.11-5.79,9.1-7.12,15.89c-1.32,6.79-1.99,15.4-1.99,25.99v1.82c0,10.76.66,19.37,1.99,26.32,1.32,6.79,3.81,12.25,7.12,16.06,3.31,3.81,7.95,6.46,13.74,7.95s13.24,2.32,22.18,2.32Z"/>
      <path class="cls-3" d="M1450.91,512.8c-14.73,0-27.31-1.32-37.58-3.97-10.26-2.65-18.37-7.12-24.5-13.24-6.12-6.12-10.59-14.4-13.24-24.83-2.81-10.43-4.14-23.17-4.14-38.73v-7.28c0-15.4,1.32-28.3,4.14-38.73,2.81-10.43,7.12-18.7,13.24-24.83,6.12-6.12,14.24-10.59,24.33-13.24s22.68-3.97,37.41-3.97,27.15.99,37.24,2.81c10.1,1.82,18.04,4.8,23.84,9.1,5.79,4.3,10.1,10.1,12.75,17.55,2.65,7.45,3.81,16.72,3.64,27.97l-33.93.66h-.17c0-5.13-.5-9.6-1.65-13.08-.99-3.48-3.14-6.29-6.12-8.28-2.98-1.99-7.28-3.48-12.75-4.3-5.63-.83-12.91-1.32-21.85-1.32s-16.39.83-22.18,2.48-10.26,4.3-13.57,8.11c-3.31,3.81-5.63,9.1-6.95,15.89-1.32,6.79-1.99,15.4-1.99,25.99v1.82c0,10.76.66,19.7,1.99,26.82,1.32,6.95,3.64,12.41,6.95,16.39,3.31,3.81,7.78,6.62,13.57,7.95,5.79,1.49,13.08,2.15,22.01,2.15,7.28,0,13.57-.33,18.7-.83,5.13-.5,9.27-1.32,12.58-2.65,3.31-1.16,5.79-2.98,7.61-5.46,1.82-2.48,2.98-5.46,3.64-9.27.66-3.81.99-8.28.99-13.57v-9.6l13.9,9.43h-69.52v-26.48h89.22v21.85c0,10.76-.83,20.03-2.48,27.81-1.65,7.78-4.14,14.07-7.78,19.2-3.64,5.13-8.28,9.1-14.24,12.08-5.96,2.98-13.24,4.97-22.01,6.12-8.77,1.16-19.04,1.65-30.95,1.65l-.17-.17Z"/>
      <path class="cls-3" d="M1589.96,478.04v-117.19c0-4.64,0-9.27-.17-13.57h35.92c0,4.47-.17,8.94-.17,13.57v148.64h-35.92c0-2.98.17-6.12.17-9.43v-22.18l.17.16Z"/>
      <path class="cls-3" d="M1764.43,512.8c-12.75,0-23.51-.5-32.44-1.32-8.94-.99-16.39-2.48-22.35-4.64-5.96-2.15-10.59-5.3-14.07-9.1-3.48-3.81-5.79-8.61-7.28-14.57-1.32-5.79-1.99-12.91-1.99-21.19v-2.98l34.59-.99v5.3c0,4.14.5,7.45,1.65,10.1,1.16,2.65,3.31,4.8,6.29,6.12,2.98,1.49,7.45,2.48,13.08,2.98,5.63.5,12.91.83,22.01.83,7.95,0,14.4-.33,19.37-.99,4.97-.66,8.77-1.65,11.26-3.14,2.65-1.49,4.3-3.31,5.3-5.79.99-2.32,1.49-5.3,1.49-8.61s-.5-5.96-1.65-8.28c-.99-2.32-3.31-4.47-6.46-6.12-3.15-1.65-8.11-3.31-14.57-4.8-6.46-1.49-14.9-2.81-25.33-3.97-13.57-1.65-24.66-3.64-33.11-6.12-8.61-2.32-15.23-5.46-20.03-9.1-4.8-3.81-8.11-8.28-9.77-13.9-1.82-5.46-2.65-12.25-2.65-20.36s1.16-15.56,3.31-21.69c2.15-6.12,5.96-11.09,11.09-15.06,5.13-3.97,12.25-6.95,21.35-8.77s20.53-2.81,34.26-2.81c12.41,0,22.84.66,31.29,1.82s15.4,2.98,20.86,5.46c5.46,2.48,9.77,5.63,12.75,9.43s4.97,8.28,6.12,13.57,1.65,11.26,1.65,18.21v2.98l-34.1.66v-4.97c0-3.31-.5-6.29-1.65-8.61s-3.14-4.3-5.96-5.63c-2.81-1.32-6.79-2.32-11.75-2.98-4.97-.66-11.26-.99-19.04-.99-7.28,0-13.24.33-17.71.99-4.47.66-8.11,1.82-10.59,3.14-2.65,1.49-4.3,3.31-5.3,5.3-.99,2.15-1.32,4.8-1.32,7.78,0,3.14.5,5.96,1.32,8.11.99,2.15,2.98,4.14,5.96,5.63,2.98,1.49,7.61,2.98,13.74,4.3s14.24,2.48,24.5,3.48c13.9,1.65,25.16,3.81,34.1,6.46,8.77,2.65,15.72,5.96,20.53,9.93,4.8,3.97,8.28,8.77,10.1,14.57,1.82,5.79,2.81,12.41,2.81,20.19,0,6.95-.66,13.24-1.82,18.7-1.16,5.46-3.48,10.26-6.46,14.07-3.14,3.81-7.45,7.12-12.75,9.6-5.46,2.48-12.25,4.3-20.53,5.46-8.28,1.16-18.21,1.65-29.8,1.65l-.33.68Z"/>
      <path class="cls-3" d="M2036.06,347.11v31.29c-5.46,0-10.59-.17-15.06-.17h-140.87v-31.29h156.09l-.16.17ZM1940.71,478.04v-114.22h34.59v145.83h-34.93c0-2.98.17-6.12.17-9.43v-22.18h.17Z"/>
      <path class="cls-3" d="M2092.34,478.04v-117.19c0-4.64,0-9.27-.17-13.57h35.92c0,4.47-.17,8.94-.17,13.57v148.64h-35.92c0-2.98.17-6.12.17-9.43v-22.18l.17.16Z"/>
      <path class="cls-3" d="M2268.62,512.8c-14.73,0-27.31-1.32-37.41-3.97-10.1-2.65-18.21-7.12-24.33-13.24s-10.59-14.4-13.24-24.83c-2.81-10.43-4.14-23.17-4.14-38.73v-7.28c0-15.4,1.32-28.3,4.14-38.73,2.81-10.43,7.12-18.7,13.24-24.83,6.12-6.12,14.24-10.59,24.33-13.24,10.1-2.65,22.68-3.97,37.41-3.97s27.15.99,37.24,3.14c10.1,2.15,17.88,5.79,23.84,10.76,5.96,4.97,10.26,11.75,12.75,20.36,2.65,8.61,3.81,19.37,3.64,32.28l-34.1.99c0-6.95-.5-12.91-1.65-17.55-.99-4.64-3.14-8.28-6.12-11.09-2.98-2.81-7.45-4.8-13.08-5.96-5.63-1.16-13.08-1.82-22.18-1.82s-16.06.83-21.85,2.48c-5.79,1.65-10.26,4.3-13.41,8.11-3.14,3.81-5.46,9.1-6.79,15.89-1.32,6.79-1.99,15.4-1.99,25.99v1.82c0,10.76.66,19.37,1.99,26.32,1.32,6.79,3.64,12.25,6.79,16.06,3.14,3.81,7.61,6.46,13.41,7.95,5.79,1.49,13.08,2.32,21.85,2.32s16.39-.66,22.01-1.99c5.63-1.32,10.1-3.31,13.08-6.12,3.14-2.81,5.3-6.46,6.46-11.26,1.16-4.8,1.65-10.59,1.65-17.38l34.1.99c0,10.26-.83,19.04-2.48,26.48-1.65,7.45-4.14,13.74-7.78,18.87-3.64,5.13-8.44,9.27-14.4,12.41s-13.41,5.3-22.18,6.79c-8.77,1.32-19.04,1.99-30.95,1.99h.17Z"/>
      <path class="cls-3" d="M2476.86,512.8c-12.75,0-23.51-.5-32.44-1.32-8.94-.99-16.39-2.48-22.35-4.64-5.96-2.15-10.59-5.3-14.07-9.1-3.48-3.81-5.79-8.61-7.28-14.57-1.32-5.79-1.99-12.91-1.99-21.19v-2.98l34.59-.99v5.3c0,4.14.5,7.45,1.65,10.1,1.16,2.65,3.31,4.8,6.29,6.12,2.98,1.49,7.45,2.48,13.08,2.98,5.63.5,12.91.83,22.01.83,7.95,0,14.4-.33,19.37-.99,4.97-.66,8.77-1.65,11.26-3.14,2.65-1.49,4.3-3.31,5.3-5.79.99-2.32,1.49-5.3,1.49-8.61s-.5-5.96-1.65-8.28c-.99-2.32-3.31-4.47-6.46-6.12-3.15-1.65-8.11-3.31-14.57-4.8-6.46-1.49-14.9-2.81-25.33-3.97-13.57-1.65-24.66-3.64-33.11-6.12-8.61-2.32-15.23-5.46-20.03-9.1-4.8-3.81-8.11-8.28-9.77-13.9-1.82-5.46-2.65-12.25-2.65-20.36s1.16-15.56,3.31-21.69c2.15-6.12,5.96-11.09,11.09-15.06,5.13-3.97,12.25-6.95,21.35-8.77,9.1-1.82,20.53-2.81,34.26-2.81,12.41,0,22.84.66,31.29,1.82s15.4,2.98,20.86,5.46c5.46,2.48,9.77,5.63,12.75,9.43,2.98,3.81,4.97,8.28,6.12,13.57,1.16,5.3,1.65,11.26,1.65,18.21v2.98l-34.1.66v-4.97c0-3.31-.5-6.29-1.65-8.61-1.16-2.32-3.14-4.3-5.96-5.63-2.81-1.32-6.79-2.32-11.75-2.98-4.97-.66-11.26-.99-19.04-.99-7.28,0-13.24.33-17.71.99-4.47.66-8.11,1.82-10.59,3.14-2.65,1.49-4.3,3.31-5.3,5.3-.99,2.15-1.32,4.8-1.32,7.78,0,3.14.5,5.96,1.32,8.11.99,2.15,2.98,4.14,5.96,5.63s7.61,2.98,13.74,4.3c6.12,1.32,14.24,2.48,24.5,3.48,13.9,1.65,25.16,3.81,34.1,6.46,8.77,2.65,15.72,5.96,20.53,9.93,4.8,3.97,8.28,8.77,10.1,14.57,1.82,5.79,2.81,12.41,2.81,20.19,0,6.95-.66,13.24-1.82,18.7-1.16,5.46-3.48,10.26-6.46,14.07-3.14,3.81-7.45,7.12-12.75,9.6-5.46,2.48-12.25,4.3-20.53,5.46-8.28,1.16-18.21,1.65-29.8,1.65l-.33.68Z"/>
    </g>
  </g>
  <g>
    <path class="cls-4" d="M497.3,372.93c-13.9.5-84.25-23.17-51.48-25.82,0-2.15,49.33,3.48,39.56-3.81-23.17-8.44-47.34-22.51-64.72-40.39-6.46-7.12,22.01-2.98,24.33-4.64-5.46-8.61-31.12,1.99-33.11-13.24,22.18,1.16,36.91-.99,6.62-11.92-34.43-9.93-45.85-46.35-62.74-73.99,10.26-3.64,24.66,1.65,34.76,3.81,12.91,3.14,23.17,7.95,35.09,6.79-17.05-15.06-45.52-14.57-66.21-20.53-1.65-6.79,3.81-4.97,8.11-4.14-27.64-22.18-45.35-29.96-57.6-68.86-24-78.13,14.07-27.15,50.65-2.15,26.48,10.59-17.71-26.65-26.65-30.79-33.27-18.87-24.5-62.4,9.6-54.95,2.98,4.97,21.52,52.97,18.21,29.63.66-.99-12.58-31.29-8.61-31.45,14.07-1.99,37.24,12.08,48.5,22.18,28.14,22.51,57.6,51.98,77.47,81.94,10.93,22.51,14.07,48.5,20.36,72.5,10.1.5-2.48-33.11-2.15-43.37-13.9-39.23,32.44,24.5,39.73,31.45,21.85,38.57,21.02,85.58,39.73,124.48,1.32-36.75-21.35-113.88,21.02-31.29,23.34,27.64,39.06,63.4,49,97.99,0,6.12-21.52,2.65-24.99,4.14-8.11,0-27.81,2.15-35.59,2.48-19.2,2.32-46.18,4.14-65.22,6.12-15.23-.99-36.42,9.77-47.51-5.3-17.22-12.91,18.7-8.94,26.48-10.93,20.03-.99,12.91-5.79-2.65-5.46v-.5Z"/>
    <path class="cls-8" d="M704.05,475.06c21.85.83,44.2-22.51,32.44-44.2-17.71-27.15-49.66-.66-72.83,4.14,0-5.63,7.95-8.77,16.55-11.75,6.62-3.14,13.57-8.11,20.69-10.1,23.51-8.77-8.44-13.41-19.7-16.55-38.07-10.26-73.83,13.9-106.1,30.46-60.75,29.8,20.36-20.86,27.15-28.47-16.06-3.14-40.22,4.14-59.59,3.81-28.64-3.31-72.83,13.41-83.1,28.8-7.28-.83,12.91-22.35,13.08-24.99-25.33,1.32-53.63,15.23-75.98,28.64-19.2,11.92-12.58,5.79-7.12-2.81,2.65-4.14,5.63-8.11,8.77-11.75.83-.99,1.65-2.15,2.32-3.31,2.15-3.81,4.64-7.45,7.78-10.59,4.47-4.64,9.6-10.93,11.09-13.57-23.01,6.62-36.91,21.69-53.47,33.27l-20.86,13.41c31.62-47.18,50.98-55.95-17.55-29.63-27.97,6.62-107.1,82.76-53.96,10.26,27.64-32.61-22.84-2.98-35.26,7.95-5.96,1.49-27.48,29.3-29.8,22.01,12.58-15.4,27.31-28.97,41.55-42.87-24.17,3.48-49.99,11.59-68.53,26.15-15.06,10.93-14.57,33.44-31.62,42.54-3.14,4.8-7.12,4.8-5.96,13.24,13.08-.66,23.34,13.9,32.11,21.85,16.55,12.41,37.91,21.69,58.1,25.33-6.12-11.59-30.95-30.79-20.36-28.47,22.51,21.19,52.8,36.09,84.58,38.73,49.99,2.48,25.49-2.98-.5-14.4-11.59-9.1,52.64,11.59,61.74,10.76,35.92,5.46,78.79,7.12,114.71,1.65,3.97-1.65,32.77-3.48,24.17-9.27-11.26,1.65-89.22-17.71-51.81-17.71,41.71.99,85.58,14.57,127.29,8.28,47.84-7.45,103.46-16.39,144.51-43.04-16.22-.5-36.58-.33-52.47-1.16.83-7.12,30.46-2.65,38.07-6.46l-.16-.17Z"/>
    <path class="cls-4" d="M690.48,560.15c-13.57,9.43-26.15-7.45-30.79-19.04-1.49-3.81-12.41-16.22-9.93-20.53,4.14-.5,17.05-9.1,18.87-1.82,6.12,12.41,14.4,29.8,22.01,41.38h-.17Z"/>
    <path class="cls-5" d="M215.25,251.6c5.46,3.48,23.51,80.78,24.33,31.78.33-13.24,6.12-36.75-2.81-47.84-.99-1.65-3.48-9.27-5.3-11.42-1.65-3.81,2.98-3.14,2.81-.33,11.42,17.71,33.11,56.45,24.17,7.61-1.16-14.4,7.95-35.09,3.81-47.34-.99-7.78-11.92-24.83-9.6-32.11l16.88,33.11c10.43,23.51,6.79-24.5,6.12-34.43-1.65-13.9-5.96-27.31-12.75-37.74-5.13-28.64,14.73-52.97,28.8-75.15,1.32-3.48,3.14-6.79,5.13-10.1,1.65-2.81,3.14-5.63,5.46-7.78,4.3-7.45,18.21-12.41,5.79-19.86-36.58,30.62-53.96,95.51-94.18,120.34-34.43,3.64-60.25,37.24-77.63,63.56,5.79,1.99,34.26-23.01,49.16-18.87-23.01,12.91-46.84,25.16-63.56,45.52-12.08,10.1-105.77,158.08-61.24,113.72,10.26-8.44,21.85-17.55,32.61-24.99,1.65,0,7.95-8.28,9.43-4.14-18.87,20.69-39.89,41.55-58.1,62.9-10.43,9.77-18.87,31.12-24,44.2-23.67,61.41,3.14,15.4,26.82,5.13,0-.17.17-.33.5-.33,1.32-.66,2.48-1.65,3.64-2.48,2.15-1.99,6.62-3.97,7.45-4.97-1.16,3.97-3.97,5.63-7.45,8.61h0c-.33.33-.66.5-1.16.83-.33.17-.5.33-.83.66-2.32,3.81-12.08,9.27-13.08,11.26-7.12,4.8-20.86,19.04-26.82,25.33-9.27,27.81-22.18,91.7,17.38,103.12,3.81-9.77,11.26-34.76,14.24-45.02,9.27-6.95-7.28,39.4-5.96,46.51,36.25,12.41,55.29-27.81,56.11-57.93,1.49,1.99-6.62-23.51,3.64-22.68,1.82,1.82.5,13.74.66,16.06.33,14.9,1.99,38.73-5.96,51.98l11.26-7.28c31.95-22.51,24-61.41,23.01-94.52,8.61-11.42,3.64,35.26,10.59,38.57,25.49-34.76,35.09-68.53,25.82-111.73,7.12-3.14,15.4,36.42,19.53,42.04,9.93-21.69,4.97-54.79,1.65-79.62-9.27-45.02,12.91,15.23,21.19,24.33,7.28-10.76,12.08-34.1,13.9-48M211.6,278.08c-.33,1.49-.5,3.14,0,4.97-.5-1.82-.5-3.48,0-4.97ZM205.48,169.5s1.16,1.65,1.65,2.48c-.5-.83-.99-1.65-1.65-2.48ZM232.29,229.75c-1.49-3.14-3.48-7.95-5.13-11.75,1.65,3.81,3.81,8.94,5.13,11.75Z"/>
  </g>
</svg>