<?xml version="1.0" encoding="UTF-8"?>
<svg id="Layer_1" xmlns="http://www.w3.org/2000/svg" version="1.1" viewBox="0 0 1197.74 222.16">
  <!-- Generator: Adobe Illustrator 30.6.0, SVG Export Plug-In . SVG Version: 2.1.4 Build 109)  -->
  <defs>
    <style>
      .st0 {
        fill: #fff;
      }
    </style>
  </defs>
  <g>
    <g>
      <path class="st0" d="M518.09,112.5h-27.53l-7.68-14.85h-58.55l-7.68,14.85h-27.53l43.65-81.25h41.66l43.65,81.25ZM433.77,79.31h39.68l-15.46-29.84h-8.75l-15.46,29.84h0Z"/>
      <path class="st0" d="M569.93,85.27v27.39h-28.05V30.5h67.18c27.85,0,41.78,8.91,41.78,26.73v1.1c0,17.96-13.93,26.95-41.78,26.95h-39.13ZM569.93,66.83h38.65c8.67,0,13-2.87,13-8.61v-.33c0-5.82-4.33-8.72-13-8.72h-38.65v17.67Z"/>
      <path class="st0" d="M788.36,112.5h-27.53l-7.68-14.85h-58.55l-7.68,14.85h-27.53l43.65-81.25h41.66l43.65,81.25ZM704.04,79.31h39.68l-15.46-29.84h-8.75l-15.46,29.84h0Z"/>
      <path class="st0" d="M862.39,113.99c-7.16,0-13.72-.52-19.67-1.55-5.95-1.03-10.96-2.38-15.03-4.04-4.06-1.66-7.66-3.69-10.8-6.09-3.14-2.4-5.59-4.82-7.36-7.25-1.77-2.44-3.24-5.06-4.4-7.86-1.17-2.8-1.93-5.35-2.29-7.64-.36-2.29-.54-4.58-.54-6.86v-3.21c0-3.54.36-6.9,1.09-10.07s2.35-6.72,4.89-10.63c2.53-3.91,5.85-7.27,9.96-10.07,4.1-2.8,9.96-5.17,17.56-7.08s16.47-2.88,26.61-2.88h4.95c9.9,0,18.62.83,26.19,2.49,7.56,1.66,13.41,3.69,17.56,6.09,4.14,2.4,7.52,5.17,10.14,8.3,2.62,3.14,4.3,5.94,5.07,8.41s1.15,4.85,1.15,7.14v1.22h-29.81c-.24-.89-.54-1.68-.91-2.38s-1.29-1.83-2.78-3.38c-1.49-1.55-3.3-2.84-5.43-3.87-2.13-1.03-5.27-1.97-9.41-2.82-4.14-.85-8.91-1.27-14.3-1.27-6.44,0-11.93.61-16.47,1.83-4.54,1.22-7.96,2.9-10.26,5.04-2.29,2.14-3.92,4.39-4.89,6.75-.97,2.36-1.45,4.94-1.45,7.75v1.33c0,2.66.54,5.22,1.63,7.69s2.8,4.87,5.13,7.2c2.33,2.32,5.79,4.19,10.38,5.59,4.59,1.4,9.98,2.1,16.17,2.1,18.42,0,29.29-4.76,32.58-14.28.08-.15.12-.26.12-.33h29.81v1.22c0,2.44-.42,4.94-1.27,7.53-.84,2.58-2.59,5.48-5.25,8.69-2.65,3.21-6.07,6.03-10.26,8.47-4.18,2.43-10.04,4.5-17.56,6.2-7.52,1.7-16.15,2.55-25.89,2.55h-4.95Z"/>
      <path class="st0" d="M954.92,30.58h27.99v29.86h60.06v-29.86h27.99v81.97h-27.99v-32.28h-60.06v32.28h-27.99V30.58Z"/>
      <path class="st0" d="M1196.53,30.2v18.71h-66.86v12.18h65.29v18.82h-65.29v13.5h68.06v19.15h-95.82V30.2h94.61Z"/>
    </g>
    <g>
      <path class="st0" d="M438.82,201.16h-48.03c.06-1.2.09-2.45.09-3.75v-54.94c0-1.86-.03-3.67-.09-5.42h13.81c-.06,1.69-.09,3.45-.09,5.28v53.13l-5.78-6.59h29.52c1.68,0,3.42-.01,5.19-.05,1.77-.03,3.57-.04,5.37-.04v12.37Z"/>
      <path class="st0" d="M488.47,202.42c-5.96,0-10.97-.53-15.03-1.58-4.06-1.05-7.33-2.8-9.8-5.24-2.47-2.44-4.24-5.7-5.33-9.8-1.08-4.09-1.63-9.18-1.63-15.26v-2.89c0-6.08.54-11.17,1.63-15.26,1.08-4.09,2.86-7.36,5.33-9.8,2.47-2.44,5.73-4.18,9.8-5.24,4.06-1.05,9.07-1.58,15.03-1.58s11.06.53,15.12,1.58c4.06,1.05,7.31,2.8,9.75,5.24s4.2,5.7,5.28,9.8c1.08,4.09,1.63,9.18,1.63,15.26v2.89c0,6.08-.54,11.17-1.63,15.26-1.08,4.09-2.84,7.36-5.28,9.8-2.44,2.44-5.69,4.18-9.75,5.24s-9.1,1.58-15.12,1.58ZM488.47,190.23c3.55,0,6.49-.3,8.8-.9,2.32-.6,4.14-1.66,5.46-3.16,1.32-1.5,2.24-3.61,2.75-6.32.51-2.71.77-6.17.77-10.38v-.72c0-4.21-.26-7.68-.77-10.38-.51-2.71-1.43-4.82-2.75-6.32-1.32-1.5-3.15-2.54-5.46-3.12-2.32-.57-5.25-.86-8.8-.86s-6.47.32-8.76.95c-2.29.63-4.09,1.7-5.42,3.21-1.33,1.51-2.26,3.6-2.8,6.27-.54,2.68-.81,6.1-.81,10.25v.72c0,4.22.27,7.68.81,10.38.54,2.71,1.47,4.82,2.8,6.32,1.32,1.5,3.13,2.56,5.42,3.16,2.29.6,5.21.9,8.76.9Z"/>
      <path class="st0" d="M572.71,202.42c-5.84,0-10.77-.53-14.81-1.58-4.03-1.05-7.25-2.8-9.66-5.24-2.41-2.44-4.15-5.7-5.24-9.8-1.08-4.09-1.63-9.18-1.63-15.26v-2.89c0-6.08.54-11.17,1.63-15.26,1.08-4.09,2.83-7.36,5.24-9.8,2.41-2.44,5.61-4.18,9.62-5.24,4-1.05,8.92-1.58,14.76-1.58s10.74.36,14.72,1.08,7.12,1.93,9.44,3.61c2.32,1.69,3.99,4,5.01,6.95s1.5,6.62,1.44,11.02l-13.36.27h-.09c0-2.05-.21-3.76-.63-5.15-.42-1.38-1.22-2.48-2.39-3.29s-2.86-1.38-5.06-1.72c-2.2-.33-5.07-.5-8.62-.5s-6.47.32-8.76.95c-2.29.63-4.08,1.7-5.37,3.21-1.29,1.51-2.21,3.6-2.75,6.27-.54,2.68-.81,6.1-.81,10.25v.72c0,4.28.27,7.8.81,10.56.54,2.77,1.46,4.92,2.75,6.45,1.29,1.53,3.08,2.59,5.37,3.16,2.29.57,5.18.86,8.67.86,2.89,0,5.34-.1,7.36-.32,2.02-.21,3.67-.56,4.97-1.04,1.29-.48,2.3-1.2,3.02-2.17.72-.96,1.2-2.18,1.44-3.66.24-1.47.36-3.26.36-5.37v-3.79l5.51,3.7h-27.45v-10.47h35.21c0,.96-.02,1.99-.04,3.07-.03,1.08-.05,2.09-.05,3.02v2.57c0,4.27-.32,7.93-.95,10.97-.63,3.04-1.66,5.57-3.07,7.58-1.41,2.02-3.3,3.6-5.64,4.74-2.35,1.14-5.25,1.94-8.71,2.39-3.46.45-7.54.68-12.23.68Z"/>
      <path class="st0" d="M627.6,188.7v-46.27c0-1.84-.03-3.63-.09-5.37h14.17c-.06,1.75-.09,3.54-.09,5.37v50.92c0,1.41.01,2.77.05,4.06.03,1.29.04,2.54.04,3.75h-14.17c.06-1.2.09-2.44.09-3.7v-8.76Z"/>
      <path class="st0" d="M696.49,202.42c-5,0-9.25-.18-12.78-.54-3.52-.36-6.46-.98-8.8-1.85-2.35-.87-4.2-2.06-5.55-3.57-1.35-1.5-2.3-3.41-2.84-5.73-.54-2.32-.81-5.1-.81-8.35v-1.17l13.63-.36v2.08c0,1.63.23,2.97.68,4.02.45,1.05,1.28,1.87,2.48,2.44,1.2.57,2.92.96,5.15,1.17,2.23.21,5.11.32,8.67.32,3.13,0,5.67-.12,7.63-.36,1.96-.24,3.44-.65,4.47-1.22,1.02-.57,1.73-1.32,2.12-2.26.39-.93.59-2.06.59-3.39s-.21-2.36-.63-3.29c-.42-.93-1.28-1.75-2.57-2.44-1.29-.69-3.21-1.32-5.73-1.9-2.53-.57-5.87-1.1-10.02-1.58-5.36-.66-9.72-1.46-13.09-2.39-3.37-.93-6-2.13-7.9-3.61s-3.19-3.3-3.88-5.46c-.69-2.17-1.04-4.84-1.04-8.04s.44-6.17,1.31-8.58c.87-2.41,2.33-4.39,4.38-5.96,2.05-1.56,4.86-2.72,8.44-3.48,3.58-.75,8.08-1.13,13.5-1.13,4.88,0,8.98.24,12.33.72,3.34.48,6.09,1.2,8.26,2.17s3.84,2.2,5.01,3.7c1.17,1.51,1.99,3.3,2.44,5.37.45,2.08.68,4.47.68,7.18v1.17l-13.45.27v-1.99c0-1.32-.23-2.45-.68-3.39-.45-.93-1.23-1.67-2.35-2.21-1.11-.54-2.65-.93-4.6-1.17-1.96-.24-4.47-.36-7.54-.36-2.89,0-5.22.13-7,.41-1.78.27-3.18.69-4.2,1.26-1.02.57-1.72,1.28-2.08,2.12-.36.84-.54,1.87-.54,3.07,0,1.26.18,2.33.54,3.21.36.87,1.14,1.61,2.35,2.21,1.2.6,3.01,1.16,5.42,1.67,2.41.51,5.63.98,9.66,1.4,5.48.66,9.96,1.52,13.45,2.57,3.49,1.05,6.2,2.36,8.13,3.93,1.93,1.57,3.25,3.48,3.97,5.73.72,2.26,1.08,4.92,1.08,7.99,0,2.77-.24,5.24-.72,7.4s-1.34,4.02-2.57,5.55c-1.23,1.53-2.92,2.8-5.05,3.79-2.14.99-4.85,1.72-8.13,2.17-3.28.45-7.21.68-11.78.68Z"/>
      <path class="st0" d="M803.66,137.06v12.37c-2.17-.06-4.15-.09-5.96-.09h-46c-1.29,0-2.74.02-4.33.05-1.6.03-3.36.05-5.28.05v-12.37h61.57ZM766.01,188.7v-45.05l13.63-.09v49.84c0,1.44.02,2.8.05,4.06s.05,2.5.05,3.7h-13.81c.06-1.2.09-2.44.09-3.7v-8.76Z"/>
      <path class="st0" d="M825.87,188.7v-46.27c0-1.84-.03-3.63-.09-5.37h14.17c-.06,1.75-.09,3.54-.09,5.37v50.92c0,1.41.01,2.77.05,4.06.03,1.29.04,2.54.04,3.75h-14.17c.06-1.2.09-2.44.09-3.7v-8.76Z"/>
      <path class="st0" d="M895.47,202.42c-5.84,0-10.76-.53-14.76-1.58s-7.21-2.8-9.62-5.24c-2.41-2.44-4.15-5.7-5.24-9.8-1.08-4.09-1.62-9.18-1.62-15.26v-2.89c0-6.08.54-11.17,1.62-15.26,1.08-4.09,2.83-7.36,5.24-9.8s5.61-4.18,9.62-5.24c4-1.05,8.92-1.58,14.76-1.58s10.73.42,14.67,1.26c3.94.84,7.09,2.26,9.44,4.24s4.03,4.67,5.06,8.03c1.02,3.37,1.5,7.62,1.44,12.73l-13.45.36c0-2.77-.21-5.07-.63-6.91-.42-1.83-1.23-3.29-2.44-4.38-1.2-1.08-2.92-1.86-5.15-2.35-2.23-.48-5.15-.72-8.76-.72s-6.36.32-8.62.95c-2.26.63-4.02,1.7-5.28,3.21-1.26,1.51-2.17,3.6-2.71,6.27-.54,2.68-.81,6.1-.81,10.25v.72c0,4.22.27,7.68.81,10.38.54,2.71,1.44,4.82,2.71,6.32,1.26,1.5,3.02,2.56,5.28,3.16,2.26.6,5.13.9,8.62.9s6.44-.25,8.67-.77c2.23-.51,3.96-1.31,5.19-2.39,1.23-1.08,2.08-2.56,2.53-4.42.45-1.86.68-4.15.68-6.86l13.45.36c0,4.03-.32,7.52-.95,10.47-.63,2.95-1.66,5.43-3.07,7.45s-3.31,3.64-5.69,4.88c-2.38,1.23-5.3,2.12-8.76,2.66-3.46.54-7.54.81-12.23.81Z"/>
      <path class="st0" d="M977.63,202.42c-5,0-9.25-.18-12.78-.54-3.52-.36-6.46-.98-8.8-1.85-2.35-.87-4.2-2.06-5.55-3.57-1.36-1.5-2.3-3.41-2.84-5.73-.54-2.32-.81-5.1-.81-8.35v-1.17l13.63-.36v2.08c0,1.63.22,2.97.68,4.02.45,1.05,1.28,1.87,2.48,2.44,1.2.57,2.92.96,5.15,1.17,2.23.21,5.12.32,8.67.32,3.13,0,5.67-.12,7.63-.36,1.96-.24,3.44-.65,4.47-1.22,1.02-.57,1.73-1.32,2.12-2.26.39-.93.59-2.06.59-3.39s-.21-2.36-.63-3.29c-.42-.93-1.28-1.75-2.57-2.44-1.29-.69-3.21-1.32-5.73-1.9s-5.87-1.1-10.02-1.58c-5.36-.66-9.72-1.46-13.09-2.39-3.37-.93-6-2.13-7.9-3.61-1.9-1.48-3.19-3.3-3.88-5.46-.69-2.17-1.04-4.84-1.04-8.04s.44-6.17,1.31-8.58c.87-2.41,2.33-4.39,4.38-5.96,2.05-1.56,4.86-2.72,8.44-3.48s8.08-1.13,13.5-1.13c4.87,0,8.98.24,12.32.72s6.09,1.2,8.26,2.17c2.17.96,3.84,2.2,5.01,3.7,1.17,1.51,1.99,3.3,2.44,5.37.45,2.08.68,4.47.68,7.18v1.17l-13.45.27v-1.99c0-1.32-.23-2.45-.68-3.39-.45-.93-1.23-1.67-2.35-2.21s-2.65-.93-4.6-1.17c-1.96-.24-4.47-.36-7.54-.36-2.89,0-5.22.13-7,.41-1.78.27-3.17.69-4.2,1.26-1.02.57-1.71,1.28-2.08,2.12s-.54,1.87-.54,3.07c0,1.26.18,2.33.54,3.21.36.87,1.14,1.61,2.35,2.21,1.2.6,3.01,1.16,5.42,1.67,2.41.51,5.63.98,9.66,1.4,5.48.66,9.96,1.52,13.45,2.57,3.49,1.05,6.2,2.36,8.13,3.93,1.93,1.57,3.25,3.48,3.97,5.73.72,2.26,1.08,4.92,1.08,7.99,0,2.77-.24,5.24-.72,7.4s-1.34,4.02-2.57,5.55c-1.23,1.53-2.92,2.8-5.05,3.79-2.14.99-4.85,1.72-8.13,2.17-3.28.45-7.21.68-11.78.68Z"/>
    </g>
  </g>
  <g>
    <path class="st0" d="M196.35,147.24c-5.5.2-33.27-9.17-20.33-10.2.02-.87,19.47,1.39,15.64-1.48-9.16-3.31-18.71-8.92-25.56-15.94-2.58-2.82,8.72-1.16,9.59-1.81-2.18-3.37-12.26.77-13.08-5.25,8.72.48,14.59-.37,2.61-4.73-13.59-3.93-18.09-18.26-24.77-29.23,4.02-1.45,9.73.64,13.75,1.5,5.08,1.23,9.17,3.13,13.85,2.65-6.75-5.96-17.98-5.75-26.1-8.09-.67-2.66,1.49-1.93,3.21-1.63-10.92-8.77-17.92-11.8-22.74-27.17-9.49-30.85,5.57-10.72,20.01-.86,10.46,4.21-6.97-10.54-10.52-12.14-13.15-7.47-9.67-24.6,3.77-21.66,1.16,1.95,8.47,20.93,7.2,11.67.28-.37-4.94-12.36-3.37-12.44,5.53-.81,14.73,4.79,19.16,8.76,11.08,8.91,22.75,20.51,30.57,32.31,4.32,8.91,5.52,19.15,8.04,28.64,4.01.2-.99-13.05-.86-17.13-5.51-15.49,12.84,9.65,15.65,12.39,8.62,15.24,8.32,33.8,15.65,49.15.52-14.5-8.41-44.96,8.33-12.38,9.22,10.88,15.39,25.05,19.36,38.65.04,2.43-8.52,1.06-9.87,1.61-3.22-.03-10.96.84-14.02.97-7.58.92-18.22,1.61-25.77,2.41-6.04-.38-14.4,3.87-18.72-2.07-6.81-5.08,7.36-3.54,10.44-4.33,7.88-.41,5.12-2.25-1.07-2.17Z"/>
    <path class="st0" d="M277.99,187.53c8.65.33,17.46-8.92,12.78-17.43-6.98-10.73-19.6-.27-28.73,1.66,0-2.25,3.15-3.46,6.55-4.65,2.58-1.22,5.33-3.23,8.19-3.99,9.28-3.48-3.36-5.27-7.77-6.51-15.04-4.07-29.16,5.47-41.9,12-23.97,11.77,8.06-8.25,10.68-11.25-6.36-1.21-15.89,1.61-23.51,1.49-11.3-1.29-28.71,5.31-32.81,11.34-2.85-.3,5.12-8.82,5.15-9.84-10.01.54-21.2,5.99-30.01,11.31-7.56,4.67-4.97,2.26-2.79-1.14,1.05-1.63,2.23-3.18,3.48-4.66.34-.4.66-.84.92-1.29.85-1.5,1.85-2.92,3.04-4.16,1.77-1.84,3.77-4.29,4.4-5.34-9.05,2.63-14.57,8.53-21.1,13.15l-8.23,5.27c12.45-18.6,20.14-22.06-6.89-11.69-11.04,2.63-42.26,32.65-21.3,4.05,10.88-12.85-9.03-1.15-13.9,3.14-2.35.58-10.87,11.57-11.76,8.67,4.97-6.1,10.78-11.46,16.4-16.95-9.56,1.38-19.76,4.57-27.08,10.29-5.98,4.34-5.73,13.19-12.5,16.82-1.26,1.92-2.8,1.89-2.34,5.2,5.16-.26,9.24,5.51,12.69,8.64,6.55,4.92,14.96,8.59,22.9,10.02-2.39-4.56-12.22-12.16-8.04-11.25,8.87,8.36,20.81,14.27,33.41,15.27,19.73,1.01,10.04-1.2-.2-5.71-4.54-3.57,20.79,4.56,24.35,4.25,14.17,2.14,31.07,2.81,45.29.66,1.57-.65,12.95-1.39,9.52-3.68-4.45.63-35.2-6.98-20.44-7,16.47.42,33.77,5.78,50.23,3.27,18.87-2.95,40.84-6.45,57.03-16.97-6.41-.22-14.46-.16-20.73-.45.35-2.78,12.02-1.07,15.02-2.55Z"/>
    <path class="st0" d="M272.62,221.08c-5.34,3.71-10.32-2.97-12.17-7.49-.57-1.48-4.9-6.37-3.92-8.12,1.62-.18,6.71-3.59,7.43-.72,2.42,4.91,5.67,11.77,8.67,16.34Z"/>
    <path class="st0" d="M85.1,99.34c2.15,1.36,9.28,31.87,9.58,12.51.15-5.2,2.44-14.5-1.08-18.89-.4-.64-1.37-3.67-2.07-4.5-.63-1.53,1.14-1.26,1.11-.16,4.48,7.01,13.04,22.28,9.52,3.04-.48-5.67,3.14-13.83,1.47-18.66-.38-3.08-4.73-9.79-3.78-12.7,0,0,6.69,13.08,6.69,13.08,4.1,9.31,2.68-9.67,2.39-13.61-.62-5.51-2.37-10.78-5.02-14.92-1.99-11.32,5.81-20.93,11.38-29.67.5-1.4,1.24-2.68,2.02-3.96.68-1.11,1.27-2.21,2.17-3.09,1.73-2.94,7.21-4.89,2.28-7.82-14.43,12.08-21.31,37.71-37.18,47.51-13.62,1.45-23.81,14.69-30.65,25.09,2.27.77,13.51-9.09,19.37-7.44-9.05,5.08-18.46,9.91-25.11,17.96-4.78,3.98-41.73,62.39-24.19,44.89,4.02-3.31,8.59-6.95,12.89-9.87.68-.05,3.15-3.27,3.7-1.63-7.42,8.18-15.74,16.4-22.92,24.84-4.14,3.87-7.42,12.27-9.5,17.42-9.36,24.23,1.27,6.04,10.6,2.04.04-.07.09-.13.16-.16.52-.27.96-.67,1.45-.98.86-.81,2.64-1.58,2.93-1.97-.44,1.6-1.55,2.25-2.95,3.43-.02-.01-.04-.03-.06-.05-.14.1-.28.2-.43.3-.11.08-.23.16-.34.24-.89,1.48-4.77,3.66-5.13,4.44-2.82,1.88-8.26,7.49-10.59,9.99-3.69,10.97-8.74,36.17,6.87,40.69,1.47-3.86,4.45-13.69,5.6-17.8,3.66-2.73-2.88,15.53-2.34,18.35,14.32,4.89,21.8-10.98,22.13-22.84.6.77-2.6-9.29,1.46-8.98.72.72.21,5.4.29,6.34.13,5.88.8,15.25-2.32,20.51,0,0,4.44-2.85,4.44-2.85,12.62-8.85,9.44-24.21,9.07-37.31,3.37-4.53,1.44,13.95,4.19,15.21,10.06-13.74,13.84-27.07,10.21-44.11,2.83-1.24,6.08,14.4,7.73,16.61,3.9-8.54,1.94-21.66.62-31.41-3.66-17.78,5.12,6,8.39,9.58,2.89-4.26,4.75-13.47,5.5-18.91M83.6,109.78c-.16.62-.17,1.25.03,1.98-.21-.73-.2-1.37-.03-1.98ZM81.23,66.9c.24.3.45.62.62.96-.18-.34-.38-.66-.62-.96ZM91.78,90.68c-.56-1.23-1.37-3.15-1.99-4.63.66,1.53,1.53,3.55,1.99,4.63Z"/>
    <path class="st0" d="M62.93,113.37c.06.01.11.03.17.04-.06-.01-.11-.02-.17-.04Z"/>
    <path class="st0" d="M63.63,113.51s.09.02.14.03c-.05,0-.09-.02-.14-.03Z"/>
    <path class="st0" d="M64.42,113.64c.06,0,.12.01.18.02-.06,0-.12-.01-.18-.02Z"/>
    <path class="st0" d="M65.12,113.71c.06,0,.12.01.18.01-.02,0-.05,0-.07,0-.04,0-.07,0-.11-.01Z"/>
    <path class="st0" d="M65.7,113.74c.06,0,.11,0,.17,0-.06,0-.11,0-.17,0Z"/>
    <path class="st0" d="M70.49,114.3c-.54.09,2.24-.38,2.3-.39l-2.3.39Z"/>
    <path class="st0" d="M84,112.74l-2.2-.21,2.2.21Z"/>
    <path class="st0" d="M89.31,106.18v-.12s0,.12,0,.12Z"/>
    <path class="st0" d="M89.31,105.32s0,.12,0,.12v-.12Z"/>
  </g>
</svg>